<?xml version="1.0" standalone="no"?>
<!DOCTYPE svg PUBLIC "-//W3C//DTD SVG 20010904//EN"
 "http://www.w3.org/TR/2001/REC-SVG-20010904/DTD/svg10.dtd">
<svg version="1.0" xmlns="http://www.w3.org/2000/svg"
 width="362.000000pt" height="340.000000pt" viewBox="0 0 362.000000 340.000000"
 preserveAspectRatio="xMidYMid meet">

<g transform="translate(0.000000,340.000000) scale(0.100000,-0.100000)"
fill="#000000" stroke="none">
<path d="M3414 2903 c-84 -113 -253 -278 -376 -369 -59 -44 -248 -162 -420
-264 -367 -216 -405 -247 -457 -375 -17 -44 -36 -89 -40 -100 -8 -17 -13 -12
-36 38 -21 45 -29 80 -32 145 -7 102 -19 132 -74 171 -67 49 -158 60 -214 26
-11 -7 -37 -16 -57 -19 -43 -8 -68 -29 -68 -57 0 -15 7 -19 30 -19 73 0 117
-54 108 -133 -7 -62 -36 -115 -77 -143 -54 -36 -67 -32 -87 29 -44 136 -110
218 -235 291 -324 188 -600 358 -671 411 -124 93 -244 211 -339 330 -46 58
-85 101 -87 95 -5 -15 54 -209 99 -325 45 -116 90 -181 156 -229 26 -19 262
-157 525 -307 263 -150 476 -275 474 -277 -14 -13 -868 437 -1030 543 -14 10
-26 14 -26 9 0 -4 44 -86 97 -183 108 -193 147 -240 226 -269 29 -11 205 -45
392 -77 426 -72 438 -76 137 -50 -96 9 -257 27 -360 40 -102 14 -187 23 -189
21 -7 -7 247 -217 279 -230 43 -18 55 -16 295 60 112 35 206 64 210 64 4 0
-42 -24 -102 -54 -119 -58 -222 -141 -245 -196 -7 -17 -10 -50 -7 -75 4 -39
20 -67 107 -181 56 -74 104 -134 105 -132 2 2 -1 28 -7 58 -15 82 -5 233 22
310 26 77 73 157 129 220 l41 45 -49 -105 c-58 -125 -80 -199 -88 -291 -7 -87
9 -146 54 -199 l35 -41 -28 -41 c-46 -65 -143 -156 -222 -206 -119 -77 -118
-71 -14 -72 67 0 104 5 128 16 50 24 106 93 151 185 35 70 41 78 53 64 11 -14
8 -27 -21 -87 -47 -99 -101 -181 -162 -246 l-52 -55 49 7 c73 9 131 48 160
104 28 57 46 109 60 179 l11 53 89 -83 c49 -45 87 -77 85 -72 -2 6 -16 33 -30
60 -106 203 -179 502 -178 730 l0 90 50 -160 c144 -468 183 -585 190 -578 4 4
55 168 114 363 59 195 110 357 112 360 3 3 3 -56 0 -130 -9 -227 -59 -431
-158 -638 l-48 -103 97 90 c107 99 102 99 120 1 32 -173 115 -270 231 -270 24
0 28 18 6 26 -28 11 -138 169 -183 263 -39 82 -42 95 -30 108 13 13 20 5 52
-63 83 -176 134 -214 287 -214 l94 0 -93 60 c-99 64 -224 182 -256 241 l-18
34 33 54 c32 51 34 59 34 145 0 104 -19 173 -91 325 -49 105 -51 109 -27 90
58 -49 140 -197 168 -304 16 -64 19 -213 6 -282 -5 -24 -7 -43 -6 -43 4 0 161
204 188 245 31 45 36 109 13 153 -33 63 -164 161 -284 212 -29 13 -51 24 -49
26 4 4 257 -73 365 -111 104 -37 122 -30 283 107 72 62 127 114 121 116 -5 1
-72 -6 -148 -17 -151 -22 -389 -47 -524 -55 l-85 -5 90 19 c50 11 205 37 345
60 140 22 277 48 304 57 77 25 121 78 231 276 54 98 96 180 93 182 -2 2 -31
-13 -64 -34 -112 -71 -399 -228 -594 -326 -209 -105 -380 -186 -380 -180 0 6
433 256 825 476 167 94 232 150 282 244 32 61 149 412 141 421 -3 2 -31 -30
-64 -73z m-1564 -773 c11 -7 7 -10 -17 -10 -18 0 -33 5 -33 10 0 13 30 13 50
0z"/>
<path d="M1420 2585 l0 -75 53 1 c51 2 51 2 12 8 -34 5 -40 10 -43 34 -3 25
-1 27 32 27 20 0 36 5 36 10 0 6 -16 10 -35 10 -30 0 -35 3 -35 24 0 22 5 25
43 29 40 3 40 4 -10 5 l-53 2 0 -75z"/>
<path d="M1690 2621 c-8 -6 -18 -7 -22 -5 -4 3 -7 -32 -6 -78 0 -46 3 -69 5
-51 4 30 6 32 35 26 23 -5 34 -2 45 12 19 27 16 62 -7 85 -22 22 -29 24 -50
11z m48 -47 c5 -55 -51 -71 -64 -18 -8 30 12 56 40 52 15 -2 22 -11 24 -34z"/>
<path d="M1806 2614 c-20 -19 -21 -78 -2 -93 19 -16 68 -10 74 7 3 11 0 12
-16 3 -23 -12 -48 -6 -56 15 -4 11 4 14 34 14 36 0 40 3 40 25 0 14 -8 29 -19
35 -27 14 -37 13 -55 -6z m58 -19 c4 -12 -3 -15 -31 -15 -30 0 -34 2 -23 15 7
8 20 15 30 15 10 0 20 -7 24 -15z"/>
<path d="M1950 2621 c-8 -6 -18 -7 -22 -5 -4 3 -7 -21 -6 -53 1 -47 2 -50 5
-18 5 46 18 65 44 65 16 0 19 -8 19 -50 0 -27 5 -50 10 -50 6 0 10 22 10 50 0
38 -4 52 -19 60 -23 12 -22 12 -41 1z"/>
<path d="M2052 2618 c-21 -21 -13 -38 24 -54 33 -14 35 -17 22 -31 -13 -12
-20 -13 -38 -3 -18 10 -21 9 -18 -2 3 -7 19 -13 39 -13 28 0 35 4 37 23 3 18
-3 26 -27 35 -38 14 -43 42 -6 34 16 -3 24 0 22 7 -5 16 -40 19 -55 4z"/>
<path d="M2166 2614 c-20 -19 -21 -78 -2 -93 19 -16 68 -10 74 7 3 11 0 12
-16 3 -23 -12 -48 -6 -56 15 -4 11 4 14 34 14 36 0 40 3 40 25 0 14 -8 29 -19
35 -27 14 -37 13 -55 -6z m58 -19 c4 -12 -3 -15 -31 -15 -30 0 -34 2 -23 15 7
8 20 15 30 15 10 0 20 -7 24 -15z"/>
<path d="M2283 2623 c-25 -9 -14 -44 17 -56 17 -6 30 -17 30 -25 0 -19 -28
-26 -47 -11 -14 12 -16 12 -11 -1 3 -9 17 -15 39 -15 28 0 35 4 37 23 3 18 -4
26 -33 38 -39 16 -38 39 1 31 27 -5 33 8 8 17 -18 7 -23 7 -41 -1z"/>
<path d="M1554 2595 c15 -23 15 -28 1 -47 -22 -33 -18 -47 7 -18 l20 25 15
-22 c23 -34 35 -28 15 7 -14 24 -15 33 -4 50 14 23 15 30 4 30 -5 0 -13 -10
-19 -22 l-10 -23 -12 23 c-6 12 -17 22 -23 22 -6 0 -3 -11 6 -25z"/>
<path d="M1730 892 c11 -29 20 -67 20 -85 0 -100 -149 -269 -336 -382 l-58
-35 103 0 c117 0 141 9 195 71 46 54 110 179 132 256 21 77 9 133 -42 190
l-33 38 19 -53z"/>
<path d="M2013 918 c-75 -83 -73 -171 6 -333 78 -159 135 -198 279 -193 l83 3
-92 60 c-156 102 -289 264 -289 352 0 18 9 55 19 83 11 27 18 50 17 50 -1 0
-12 -10 -23 -22z"/>
<path d="M1924 630 c4 -90 28 -187 61 -250 31 -58 116 -110 182 -110 24 0 22
3 -22 53 -88 97 -145 192 -197 327 l-29 75 5 -95z"/>
<path d="M1787 615 c-54 -125 -108 -214 -173 -285 l-56 -60 33 0 c48 1 109 31
146 73 54 61 98 212 91 312 l-3 50 -38 -90z"/>
<path d="M1871 598 c-1 -3 -13 -60 -27 -125 -31 -142 -32 -217 -6 -277 26 -59
38 -63 62 -24 40 67 44 123 15 264 -22 112 -42 184 -44 162z"/>
</g>
</svg>
